<svg xmlns="http://www.w3.org/2000/svg" viewBox="0 0 48 48" width="48px" height="48px">
<path d="M33.8,21.1c0.1,0,0.8-0.1,0.9-0.1c0,0.1,0.4,2.4,0.3,2.5c-0.1,0-0.7,0.2-0.7,0.2C34.2,23.3,33.8,21.3,33.8,21.1 M35,20.9
	l0.3,2.5c0.2,0,0.8-0.1,0.9-0.1c-0.1-1-0.3-2.5-0.3-2.5C35.6,20.8,35.3,20.8,35,20.9 M34.3,24.4c0,0,1.5-0.4,2-0.2
	c0.3,1,0.8,6.4,0.8,6.6c-0.3,0-1.4,0.1-1.5,0.2C35.6,30.6,34.3,24.7,34.3,24.4 M39.7,21.2c0.1,0,0.9-0.1,0.9,0c0,0.2,0.1,2.5,0,2.5
	s-0.7,0.1-0.7,0.1C39.9,23.4,39.7,21.4,39.7,21.2 M40.9,21.1l0.1,2.5c0.2,0,0.8,0,0.9,0c0-1,0-2.5,0-2.5
	C41.5,21.1,41.2,21.1,40.9,21.1 M39.9,24.5c0,0,1.5-0.2,2,0c0.1,1.1,0.1,6.4,0.1,6.6c-0.3,0-1.4,0-1.5,0
	C40.5,30.8,39.9,24.8,39.9,24.5 M36.4,18c0.9,4.4,1.5,11.8,1.5,12.3c0,0,0.7,0,1.4,0.1c-0.4-4.7-1-12.2-1-12.4
	C38.2,17.7,36.4,18,36.4,18 M34.6,28.3c-0.2-1.2-4.5-2.6-7-2.2c0,0-0.3-2.7-0.4-5.3c-0.1-2.2,0-4.4,0-4.8c-0.2-0.1-1.9,0.7-2.9,1.1
	c0,0,1.1,4.8,2,14.9c0,0,1.3,0.1,3.6-0.3C32.1,31.3,34.8,30,34.6,28.3 M29.2,30.5l-0.4-2.8c0.1,0,2.5,0.8,2.7,1
	C31.5,28.9,29.2,30.5,29.2,30.5 M15.6,21.1c0.1,0,0.8-0.1,0.9-0.1c0,0.1,0.4,2.4,0.3,2.5c-0.1,0-0.7,0.2-0.7,0.2
	C16,23.3,15.6,21.3,15.6,21.1 M16.7,20.9l0.3,2.5c0.2,0,0.8-0.1,0.9-0.1c-0.1-1-0.3-2.5-0.3-2.5C17.4,20.8,17,20.8,16.7,20.9
	 M16.1,24.4c0,0,1.5-0.4,2-0.2c0.3,1,0.8,6.4,0.8,6.6c-0.3,0-1.4,0.1-1.5,0.2C17.3,30.6,16.1,24.7,16.1,24.4 M21.5,21.2
	c0.1,0,0.9-0.1,0.9,0c0,0.2,0.1,2.5,0,2.5s-0.7,0.1-0.7,0.1C21.6,23.4,21.5,21.4,21.5,21.2 M22.7,21.1l0.1,2.5c0.2,0,0.8,0,0.9,0
	c0-1,0-2.5,0-2.5C23.3,21.1,23,21.1,22.7,21.1 M21.6,24.5c0,0,1.5-0.2,2,0c0.1,1.1,0.1,6.4,0.1,6.6c-0.3,0-1.4,0-1.5,0
	C22.2,30.8,21.6,24.8,21.6,24.5 M18.2,18c0.9,4.4,1.5,11.8,1.5,12.3c0,0,0.7,0,1.4,0.1c-0.4-4.7-1-12.2-1-12.4
	C20,17.7,18.2,18,18.2,18 M16.3,28.3c-0.2-1.2-4.5-2.6-7-2.2c0,0-0.3-2.7-0.4-5.3c-0.1-2.2,0-4.4,0-4.8C8.7,15.9,7,16.7,6,17.1
	c0,0,1.1,4.8,2,14.9c0,0,1.3,0.1,3.6-0.3C13.8,31.3,16.5,30,16.3,28.3 M11,30.5l-0.4-2.8c0.1,0,2.5,0.8,2.7,1
	C13.2,28.9,11,30.5,11,30.5" fill="#00a1d6"/>
</svg>
