<svg xmlns="http://www.w3.org/2000/svg" viewBox="0 0 48 48" width="48px" height="48px">
<path fill="#00B1FF" d="M13.2,40.6c0.6,0.3,1.4,0.1,1.7-0.4c0.3-0.6,0.1-1.4-0.4-1.7l0,0c-0.6-0.3-1.4-0.1-1.7,0.4
	C12.4,39.5,12.6,40.3,13.2,40.6L13.2,40.6z"/>
<path fill="#FFD500" d="M33.2,18.7l-9.7-5.6c-0.7-0.4-0.9-1.2-0.5-1.9l3.4-6c0.4-0.7,1.2-0.9,1.9-0.5l9.7,5.6
	c0.7,0.4,0.9,1.2,0.5,1.9l-3.4,6C34.7,18.9,33.9,19.1,33.2,18.7z"/>
<path fill="#00B1FF" d="M31.1,35.7c-5.6,0.2-18.3,7.1-18.3,7.1s0-15.7-2.9-19.3c-0.2-0.3,13.7-10.3,13.7-10.3l9.6,5.5
	C33.2,18.6,31.4,35.7,31.1,35.7z"/>
<path fill="#0091F1" d="M36.4,9.5l-9.7-5.6c-0.1,0-0.1-0.1-0.2-0.1l6.9,4c0.7,0.4,0.9,1.2,0.5,1.9l-3.4,6c-0.4,0.7-1.2,0.9-1.9,0.5
	l-0.1,0c-0.1,0.9-1.8,17-2.1,17c-3.9,0.1-11.2,3.5-15.3,5.6c0,1.3,0.1,2.3,0.1,2.9c-0.7-0.3-1.5,0.1-1.8,0.8
	c-0.3,0.6-0.1,1.3,0.5,1.7c0.7,0.5,1.7,0.3,2.1-0.4c0.4-0.6,0.2-1.4-0.4-1.9c2.2-1.1,12.9-6.7,17.9-6.9c0.3,0,1.9-16.1,2.1-17l0.1,0
	c0.7,0.4,1.5,0.1,1.9-0.5l3.4-6C37.3,10.7,37,9.8,36.4,9.5L36.4,9.5z"/>
<path fill="#FFB600" d="M28.4,16.1L28.4,16.1c0.7,0.4,1.6,0.2,1.9-0.5l3.4-6C34.2,9,34,8.1,33.3,7.8l-6.9-4c0.1,0,0.1,0.1,0.2,0.1
	l9.7,5.6c0.7,0.4,0.9,1.2,0.5,1.9l-3.4,6c-0.4,0.7-1.2,0.9-1.9,0.5l-0.1,0"/>
<path fill="#FFFFFF" d="M16.7,32.4c1.4,0.8,3.1,0.3,3.9-1.1c0.8-1.4,0.3-3.1-1.1-3.9l0,0c-1.4-0.8-3.1-0.3-3.9,1.1
	C14.9,29.8,15.3,31.6,16.7,32.4z"/>
<path fill="#5C3290" d="M9.7,43.8c0.6,0.5,1.5,0.5,2,0c0.5-0.6,0.5-1.5,0-2c-0.6-0.5-1.5-0.5-2,0C9.1,42.4,9.1,43.3,9.7,43.8z"/>
</svg>
