<?xml version="1.0" encoding="utf-8"?>
<!-- Generator: Adobe Illustrator 23.0.0, SVG Export Plug-In . SVG Version: 6.00 Build 0)  -->
<svg version="1.2" baseProfile="tiny" id="图层_1"
	 xmlns="http://www.w3.org/2000/svg" xmlns:xlink="http://www.w3.org/1999/xlink" x="0px" y="0px" viewBox="0 0 500 500"
	 xml:space="preserve">
<path id="XMLID_7_" fill="#383939" d="M419.2,281.1h-352V92.7c0-8.7,7-15.7,15.7-15.7H403c8.9,0,16.2,7.3,16.2,16.2V281.1z"/>
<path id="XMLID_30_" fill="#3A3A3A" d="M73.2,266.1v-174c0-5,4-9,9-9h322c5,0,9,4,9,9v174c0,5-4,9-9,9h-322
	C77.3,275.1,73.2,271,73.2,266.1z"/>
<path id="XMLID_18_" fill="none" stroke="#383939" stroke-width="6" stroke-linecap="round" stroke-linejoin="round" stroke-miterlimit="10" d="
	M419.2,281.1h-352V92.7c0-8.7,7-15.7,15.7-15.7H403c8.9,0,16.2,7.3,16.2,16.2V281.1z"/>
<rect id="XMLID_10_" x="87.2" y="97" fill="#4F4F4F" width="312" height="164"/>
<path id="XMLID_19_" fill="#FFFFFF" d="M402.9,329.1H83c-8.7,0-15.8-7.1-15.8-15.8v-32.2h352v31.7
	C419.2,321.7,411.9,329.1,402.9,329.1z"/>
<path id="XMLID_6_" fill="none" stroke="#383939" stroke-width="6" stroke-linecap="round" stroke-linejoin="round" stroke-miterlimit="10" d="
	M402.9,329.1H83c-8.7,0-15.8-7.1-15.8-15.8v-32.2h352v31.7C419.2,321.7,411.9,329.1,402.9,329.1z"/>
<polygon id="XMLID_22_" fill="#EFEFEF" points="296.2,365.1 190.2,365.1 205.9,329.1 280.5,329.1 "/>
<polygon id="XMLID_1_" fill="none" stroke="#383939" stroke-width="6" stroke-linecap="round" stroke-linejoin="round" stroke-miterlimit="10" points="
	296.2,365.1 190.2,365.1 205.9,329.1 280.5,329.1 "/>
<path id="XMLID_23_" fill="#FFFFFF" d="M316.2,381.1h-146l1.5-5.3c1.8-6.3,7.7-10.7,14.5-10.7h114c6.8,0,12.8,4.4,14.5,10.7
	L316.2,381.1z"/>
<path id="XMLID_9_" fill="none" stroke="#383939" stroke-width="6" stroke-linecap="round" stroke-linejoin="round" stroke-miterlimit="10" d="
	M316.2,381.1h-146l1.5-5.3c1.8-6.3,7.7-10.7,14.5-10.7h114c6.8,0,12.8,4.4,14.5,10.7L316.2,381.1z"/>
<path id="XMLID_24_" fill="#FFFFFF" d="M113.1,422h253.7c3.7,0,6.7-3,6.7-6.7l0,0c0-3.7-3-6.7-6.7-6.7H113.1c-3.7,0-6.7,3-6.7,6.7
	l0,0C106.3,419,109.3,422,113.1,422z"/>
<path id="XMLID_8_" fill="none" stroke="#383939" stroke-width="6" stroke-linecap="round" stroke-linejoin="round" stroke-miterlimit="10" d="
	M113.1,422h253.7c3.7,0,6.7-3,6.7-6.7l0,0c0-3.7-3-6.7-6.7-6.7H113.1c-3.7,0-6.7,3-6.7,6.7l0,0C106.3,419,109.3,422,113.1,422z"/>
<path id="XMLID_11_" fill="#383939" d="M190.9,408.5h122v-4c0-3.3-2.7-6-6-6h-110c-3.3,0-6,2.7-6,6L190.9,408.5L190.9,408.5z"/>
<path id="XMLID_13_" fill="#383939" d="M166.7,408.5h21.2v-4c0-3.3-2.7-6-6-6h-9.2c-3.3,0-6,2.7-6,6V408.5z"/>
<path id="XMLID_14_" fill="#383939" d="M142,408.5h21.2v-4c0-3.3-2.7-6-6-6H148c-3.3,0-6,2.7-6,6V408.5z"/>
<path id="XMLID_17_" fill="#383939" d="M341.2,408.5h21.2v-4c0-3.3-2.7-6-6-6h-9.2c-3.3,0-6,2.7-6,6V408.5z"/>
<path id="XMLID_16_" fill="#383939" d="M316.6,408.5h21.2v-4c0-3.3-2.7-6-6-6h-9.2c-3.3,0-6,2.7-6,6V408.5z"/>
<path id="XMLID_15_" fill="#383939" d="M117.4,408.5h21.2v-4c0-3.3-2.7-6-6-6h-9.2c-3.3,0-6,2.7-6,6V408.5z"/>
<path id="XMLID_25_" fill="#FFFFFF" d="M433.7,422c-0.1-7.6-8.4-15.2-23.1-15.2c-14.6,0-23,7.6-23.1,15.2H433.7z"/>
<path id="XMLID_20_" fill="none" stroke="#383939" stroke-width="6" stroke-linecap="round" stroke-linejoin="round" stroke-miterlimit="10" d="
	M433.7,422c-0.1-7.6-8.4-15.2-23.1-15.2c-14.6,0-23,7.6-23.1,15.2H433.7z"/>
</svg>
