<svg xmlns="http://www.w3.org/2000/svg" viewBox="0 0 48 48" width="48px" height="48px">
<path fill-rule="evenodd" fill="#E0234E" d="M27.2,6c-0.3,0-0.5,0.1-0.7,0.1c0.5,0.3,0.7,0.7,0.9,1.2c0,0.1,0,0.1,0,0.2
	c0,0.1,0,0.1,0,0.2c0,0.8-0.2,0.9-0.4,1.4c-0.3,0.6-0.2,1.3,0.1,1.8c0,0.1,0.1,0.1,0.1,0.2c-0.4-2.4,1.6-2.7,2-3.5
	c0-0.6-0.5-1.1-0.9-1.4C27.9,6.1,27.5,6,27.2,6L27.2,6z M30.2,6.5c0,0.2,0,0.2,0,0.3c0,0.1,0,0.2,0,0.2c0,0.1,0,0.1-0.1,0.2
	c0,0.1,0,0.1-0.1,0.2c0,0.1-0.1,0.1-0.1,0.2c0,0,0,0.1-0.1,0.1c0,0,0,0.1-0.1,0.1c0,0.1-0.1,0.1-0.1,0.2c-0.1,0.1-0.1,0.1-0.2,0.2v0
	c-0.1,0-0.1,0.1-0.2,0.1c-0.2,0.1-0.4,0.3-0.6,0.4c-0.1,0-0.1,0.1-0.2,0.1c-0.1,0-0.1,0.1-0.2,0.1c-0.1,0.1-0.1,0.1-0.2,0.2
	c0,0.1-0.1,0.1-0.1,0.2c0,0.1-0.1,0.1-0.1,0.2c0,0.1-0.1,0.1-0.1,0.2c0,0.1-0.1,0.1-0.1,0.2c0,0.1,0,0.2-0.1,0.2c0,0,0,0.1,0,0.1
	c0,0,0,0.1,0,0.1c0,0.1,0,0.2,0,0.2c0,0.1,0,0.1,0,0.2c0,0.1,0,0.1,0,0.2c0,0.1,0,0.1,0,0.2c0,0.1,0,0.1,0.1,0.2c0,0,0,0.1,0.1,0.1
	l-2.1-0.8c-0.4-0.1-0.7-0.2-1.1-0.3c-0.2,0-0.4-0.1-0.6-0.1c-0.6-0.1-1.1-0.2-1.7-0.3c0,0,0,0,0,0c-0.6-0.1-1.1-0.1-1.7-0.1
	c-0.4,0-0.8,0-1.2,0c-0.6,0-1.1,0.1-1.7,0.2c-0.1,0-0.3,0-0.4,0.1c-0.3,0.1-0.6,0.1-0.8,0.2c-0.1,0-0.3,0.1-0.4,0.1
	c-0.1,0.1-0.3,0.1-0.4,0.2c-0.1,0-0.2,0.1-0.3,0.1c0,0,0,0,0,0c-0.1,0-0.2,0.1-0.3,0.1c0,0,0,0-0.1,0c-0.1,0-0.2,0.1-0.3,0.1
	c-0.1,0-0.1,0.1-0.2,0.1c0,0-0.1,0-0.1,0c-0.1,0-0.2,0.1-0.2,0.1c-0.1,0-0.2,0.1-0.2,0.1c-0.1,0-0.1,0.1-0.2,0.1c0,0,0,0,0,0
	c-0.1,0-0.1,0.1-0.2,0.1c0,0,0,0,0,0c0,0-0.1,0.1-0.1,0.1c0,0,0,0-0.1,0c0,0-0.1,0.1-0.1,0.1c0,0,0,0,0,0c-0.1,0.1-0.1,0.1-0.2,0.2
	c0,0,0,0,0,0c-0.1,0-0.1,0.1-0.2,0.2c0,0,0,0,0,0c0,0-0.1,0.1-0.1,0.1c0,0,0,0-0.1,0.1c0,0.1-0.1,0.1-0.2,0.2c0,0,0,0,0,0
	c-0.1,0.1-0.1,0.1-0.2,0.2c0,0,0,0,0,0c-0.1,0.2-0.3,0.3-0.5,0.5c-0.2,0.1-0.3,0.3-0.5,0.4c-0.2,0.1-0.4,0.2-0.6,0.4
	c-0.2,0.1-0.4,0.2-0.6,0.3c-0.2,0.1-0.4,0.2-0.6,0.2c-0.4,0.1-0.8,0.2-1.1,0.3c-0.1,0-0.2,0-0.2,0c-0.1,0-0.2,0-0.2,0.1
	c-0.1,0-0.1,0.1-0.2,0.1c-0.1,0-0.1,0.1-0.2,0.1c-0.1,0-0.1,0.1-0.2,0.1C7,15.9,7,16,6.9,16.1c-0.1,0-0.1,0.1-0.2,0.2
	c-0.1,0.1-0.1,0.1-0.2,0.2c0,0.1-0.1,0.1-0.1,0.2c0,0.1-0.1,0.1-0.1,0.2c0,0.1-0.1,0.2-0.1,0.2c0,0.1-0.1,0.2-0.1,0.2
	c0,0.1,0,0.1,0,0.2c0,0,0,0,0,0c0,0.1,0,0.2,0,0.3C6,17.9,6,18,6,18c0,0,0,0.1,0,0.1c0,0.1,0,0.1,0,0.2c0,0.1,0,0.1,0.1,0.2v0
	c0,0.1,0.1,0.1,0.1,0.2c0,0.1,0.1,0.1,0.1,0.2c0,0,0.1,0.1,0.2,0.1c0.1,0.1,0.1,0.1,0.2,0.1c0.2,0.2,0.3,0.3,0.6,0.4
	c0,0,0.1,0,0.1,0.1c0,0,0,0,0,0c0,0,0,0,0,0c0,0.1,0,0.1,0,0.2c0,0.1,0,0.2,0.1,0.2c0,0.1,0,0.1,0.1,0.2c0,0,0,0,0,0
	c0,0.1,0.1,0.1,0.1,0.2c0,0.1,0.1,0.1,0.1,0.2c0,0.1,0.1,0.1,0.2,0.2s0.1,0.1,0.2,0.2c0,0,0,0,0,0c0.1,0,0.1,0.1,0.2,0.1
	c0.1,0,0.1,0.1,0.2,0.1c0.1,0,0.1,0.1,0.2,0.1c0.1,0,0.1,0,0.2,0.1c0,0,0,0,0,0c0,0,0.1,0,0.1,0c0,0.5,0,1,0,1.1
	c0.1,0.2,0.5-0.4,0.9-1c-0.1,0.6-0.1,1.4,0,1.6c0.1,0.2,0.7-0.5,1.1-1.3c6.6-1.5,12.6,3,13.2,9.5c-0.1-1-1.4-1.6-1.9-1.4
	c-0.3,0.7-0.8,1.6-1.5,2.1c0.1-0.6,0-1.3-0.1-1.9c-0.2,0.9-0.6,1.7-1.2,2.4c-0.9,0.1-1.8-0.4-2.2-1c0,0,0-0.1-0.1-0.1
	c0-0.1-0.1-0.1-0.1-0.2c0-0.1,0-0.1-0.1-0.2c0-0.1,0-0.1,0-0.2c0,0,0-0.1,0-0.1c0-0.1,0-0.1,0-0.2c0-0.1,0-0.1,0.1-0.2
	c0-0.1,0.1-0.1,0.1-0.2c0.2-0.4,0.2-0.8-0.1-1c-0.1,0-0.1-0.1-0.2-0.1c0,0-0.1,0-0.1,0c0,0,0,0-0.1,0c-0.1,0-0.1,0-0.2,0
	c-0.1,0-0.1,0-0.2,0c-0.1,0-0.1,0-0.2,0c0,0-0.1,0-0.1,0c-0.1,0-0.1,0-0.2,0c-0.1,0-0.1,0-0.2,0c-0.1,0-0.1,0-0.2,0.1
	c-0.1,0-0.1,0.1-0.2,0.1c-0.1,0-0.1,0.1-0.2,0.1C13.2,30.7,14.5,34,16,35c-0.6,0.1-1.1,0.2-1.3,0.3c0,0,0,0,0,0
	c0.4,0.2,0.8,0.4,1.3,0.6c0.6,0.2,1.2,0.4,1.5,0.4v0c0.8,0.2,1.6,0.2,2.3,0.2c4.1-0.3,7.5-3.4,8.1-7.6c0,0.1,0,0.2,0.1,0.2
	c0,0.2,0.1,0.3,0.1,0.5v0c0,0.1,0,0.2,0,0.2v0c0,0.1,0,0.2,0,0.2c0,0.1,0,0.2,0,0.3v0.1c0,0,0,0.1,0,0.1c0,0.1,0,0.1,0,0.2v0.1
	c0,0.1,0,0.1,0,0.2c0,0,0,0.1,0,0.1c0,0.1,0,0.1,0,0.2c0,0,0,0.1,0,0.1c0,0.1,0,0.1,0,0.2c0,0,0,0.1,0,0.1c0,0.1,0,0.2,0,0.3v0v0
	c0,0.1,0,0.2-0.1,0.3v0c0,0.1,0,0.2-0.1,0.3c0,0,0,0,0,0c0,0.1,0,0.2-0.1,0.3v0c0,0.1-0.1,0.2-0.1,0.3c0,0,0,0,0,0
	c0,0.1-0.1,0.2-0.1,0.3c0,0.1-0.1,0.2-0.1,0.3c0,0.1-0.1,0.2-0.1,0.3c0,0.1-0.1,0.2-0.1,0.3h0c0,0.1-0.1,0.2-0.1,0.3c0,0,0,0,0,0.1
	c0,0,0,0,0,0c-0.6,1.2-1.5,2.3-2.6,3.1c-0.1,0-0.1,0.1-0.2,0.2c0,0,0,0-0.1,0c-0.1,0-0.1,0.1-0.2,0.1l0,0.1h0c0.1,0,0.3,0,0.4-0.1h0
	c0.2,0,0.5-0.1,0.7-0.1c0.1,0,0.1,0,0.2,0c0,0,0.1,0,0.1,0c0.1,0,0.1,0,0.2,0c0.1,0,0.1,0,0.2,0c0.9-0.2,1.8-0.5,2.7-0.9
	c-1.5,2-3.5,3.7-5.8,4.7c1.1-0.1,2.1-0.3,3.2-0.6c3.7-1.1,6.9-3.6,8.8-7c-0.4,2.2-1.2,4.2-2.5,6c0.9-0.6,1.7-1.3,2.5-2.1
	c2.1-2.2,3.4-5,3.9-7.9c0.3,1.5,0.4,3,0.3,4.5c6.7-9.4,0.6-19.1-2-21.7c0,0,0,0,0,0c0,0,0,0,0,0c0,0,0,0,0,0c0,0.1,0,0.2,0,0.3
	c0,0.2-0.1,0.4-0.1,0.6c0,0.2-0.1,0.4-0.2,0.6c-0.1,0.2-0.1,0.4-0.2,0.6c-0.1,0.2-0.2,0.4-0.3,0.6c-0.1,0.2-0.2,0.4-0.3,0.5
	c-0.1,0.2-0.3,0.3-0.4,0.5c-0.1,0.2-0.3,0.3-0.4,0.5c-0.1,0.1-0.2,0.2-0.3,0.2c-0.1,0.1-0.1,0.1-0.2,0.2c-0.2,0.1-0.3,0.3-0.5,0.4
	c-0.2,0.1-0.4,0.2-0.5,0.3c-0.2,0.1-0.4,0.2-0.6,0.3c-0.2,0.1-0.4,0.1-0.6,0.2C32,19,31.8,19,31.6,19.1c-0.2,0-0.4,0.1-0.6,0.1
	c-0.1,0-0.3,0-0.4,0c-0.2,0-0.4,0-0.6,0c-0.2,0-0.4,0-0.6-0.1c-0.2,0-0.4-0.1-0.6-0.2h0c0.2,0,0.4,0,0.6-0.1c0.2,0,0.4-0.1,0.6-0.1
	c0.2-0.1,0.4-0.1,0.6-0.2c0.2-0.1,0.4-0.2,0.6-0.3c0.2-0.1,0.4-0.2,0.6-0.3c0.2-0.1,0.4-0.2,0.5-0.4c0.2-0.1,0.3-0.3,0.5-0.4
	c0.2-0.1,0.3-0.3,0.4-0.5c0.1-0.2,0.3-0.3,0.4-0.5c0,0,0-0.1,0.1-0.1c0.1-0.1,0.2-0.3,0.3-0.4c0.1-0.2,0.2-0.4,0.3-0.6
	c0.1-0.2,0.2-0.4,0.2-0.6c0.1-0.2,0.1-0.4,0.2-0.6c0-0.2,0.1-0.4,0.1-0.6c0-0.2,0-0.4,0-0.6c0-0.1,0-0.3,0-0.4c0-0.2,0-0.4-0.1-0.6
	c0-0.2-0.1-0.4-0.1-0.6c-0.1-0.2-0.1-0.4-0.2-0.6c-0.1-0.2-0.2-0.4-0.3-0.6c-0.1-0.2-0.2-0.4-0.3-0.6c-0.1-0.2-0.2-0.3-0.4-0.5
	c-0.1-0.2-0.3-0.3-0.4-0.5c-0.1-0.1-0.2-0.2-0.2-0.2c-0.4-0.3-0.9-0.6-1.3-0.9C31.2,7,31.1,7,31,6.9C30.7,6.7,30.4,6.6,30.2,6.5
	L30.2,6.5z"/>
</svg>
