<?xml version="1.0" encoding="utf-8"?>
<!-- Generator: Adobe Illustrator 23.0.0, SVG Export Plug-In . SVG Version: 6.00 Build 0)  -->
<svg version="1.2" baseProfile="tiny" id="图层_1"
	 xmlns="http://www.w3.org/2000/svg" xmlns:xlink="http://www.w3.org/1999/xlink" x="0px" y="0px" viewBox="0 0 450 120"
	 xml:space="preserve">
<g transform="translate(10, 20)">
	<g transform="translate(0, 0)">
		<rect x="6.5" y="-10.5" fill="#9BE9A8" width="11" height="11"/>
		<rect x="6.5" y="4.5" fill="#40C463" width="11" height="11"/>
		<rect x="6.5" y="19.5" fill="#EBEDF0" width="11" height="11"/>
		<rect x="6.5" y="34.5" fill="#40C463" width="11" height="11"/>
		<rect x="6.5" y="49.5" fill="#EBEDF0" width="11" height="11"/>
		<rect x="6.5" y="64.5" fill="#30A14E" width="11" height="11"/>
		<rect x="6.5" y="79.5" fill="#30A14E" width="11" height="11"/>
	</g>
	<g transform="translate(16, 0)">
		<rect x="5.5" y="-10.5" fill="#EBEDF0" width="11" height="11"/>
		<rect x="5.5" y="4.5" fill="#9BE9A8" width="11" height="11"/>
		<rect x="5.5" y="19.5" fill="#EBEDF0" width="11" height="11"/>
		<rect x="5.5" y="34.5" fill="#EBEDF0" width="11" height="11"/>
		<rect x="5.5" y="49.5" fill="#EBEDF0" width="11" height="11"/>
		<rect x="5.5" y="64.5" fill="#9BE9A8" width="11" height="11"/>
		<rect x="5.5" y="79.5" fill="#40C463" width="11" height="11"/>
	</g>
	<g transform="translate(32, 0)">
		<rect x="4.5" y="-10.5" fill="#9BE9A8" width="11" height="11"/>
		<rect x="4.5" y="4.5" fill="#40C463" width="11" height="11"/>
		<rect x="4.5" y="19.5" fill="#9BE9A8" width="11" height="11"/>
		<rect x="4.5" y="34.5" fill="#40C463" width="11" height="11"/>
		<rect x="4.5" y="49.5" fill="#40C463" width="11" height="11"/>
		<rect x="4.5" y="64.5" fill="#40C463" width="11" height="11"/>
		<rect x="4.5" y="79.5" fill="#EBEDF0" width="11" height="11"/>
	</g>
	<g transform="translate(48, 0)">
		<rect x="3.5" y="-10.5" fill="#40C463" width="11" height="11"/>
		<rect x="3.5" y="4.5" fill="#30A14E" width="11" height="11"/>
		<rect x="3.5" y="19.5" fill="#9BE9A8" width="11" height="11"/>
		<rect x="3.5" y="34.5" fill="#EBEDF0" width="11" height="11"/>
		<rect x="3.5" y="49.5" fill="#40C463" width="11" height="11"/>
		<rect x="3.5" y="64.5" fill="#30A14E" width="11" height="11"/>
		<rect x="3.5" y="79.5" fill="#30A14E" width="11" height="11"/>
	</g>
	<g transform="translate(64, 0)">
		<rect x="2.5" y="-10.5" fill="#30A14E" width="11" height="11"/>
		<rect x="2.5" y="4.5" fill="#EBEDF0" width="11" height="11"/>
		<rect x="2.5" y="19.5" fill="#30A14E" width="11" height="11"/>
		<rect x="2.5" y="34.5" fill="#EBEDF0" width="11" height="11"/>
		<rect x="2.5" y="49.5" fill="#40C463" width="11" height="11"/>
		<rect x="2.5" y="64.5" fill="#30A14E" width="11" height="11"/>
		<rect x="2.5" y="79.5" fill="#9BE9A8" width="11" height="11"/>
	</g>
	<g transform="translate(80, 0)">
		<rect x="1.5" y="-10.5" fill="#9BE9A8" width="11" height="11"/>
		<rect x="1.5" y="4.5" fill="#40C463" width="11" height="11"/>
		<rect x="1.5" y="19.5" fill="#30A14E" width="11" height="11"/>
		<rect x="1.5" y="34.5" fill="#40C463" width="11" height="11"/>
		<rect x="1.5" y="49.5" fill="#30A14E" width="11" height="11"/>
		<rect x="1.5" y="64.5" fill="#9BE9A8" width="11" height="11"/>
		<rect x="1.5" y="79.5" fill="#9BE9A8" width="11" height="11"/>
	</g>
	<g transform="translate(96, 0)">
		<rect x="0.5" y="-10.5" fill="#30A14E" width="11" height="11"/>
		<rect x="0.5" y="4.5" fill="#40C463" width="11" height="11"/>
		<rect x="0.5" y="19.5" fill="#40C463" width="11" height="11"/>
		<rect x="0.5" y="34.5" fill="#40C463" width="11" height="11"/>
		<rect x="0.5" y="49.5" fill="#40C463" width="11" height="11"/>
		<rect x="0.5" y="64.5" fill="#EBEDF0" width="11" height="11"/>
		<rect x="0.5" y="79.5" fill="#40C463" width="11" height="11"/>
	</g>
	<g transform="translate(112, 0)">
		<rect x="-0.5" y="-10.5" fill="#40C463" width="11" height="11"/>
		<rect x="-0.5" y="4.5" fill="#40C463" width="11" height="11"/>
		<rect x="-0.5" y="19.5" fill="#40C463" width="11" height="11"/>
		<rect x="-0.5" y="34.5" fill="#40C463" width="11" height="11"/>
		<rect x="-0.5" y="49.5" fill="#30A14E" width="11" height="11"/>
		<rect x="-0.5" y="64.5" fill="#30A14E" width="11" height="11"/>
		<rect x="-0.5" y="79.5" fill="#30A14E" width="11" height="11"/>
	</g>
	<g transform="translate(128, 0)">
		<rect x="-1.5" y="-10.5" fill="#40C463" width="11" height="11"/>
		<rect x="-1.5" y="4.5" fill="#40C463" width="11" height="11"/>
		<rect x="-1.5" y="19.5" fill="#40C463" width="11" height="11"/>
		<rect x="-1.5" y="34.5" fill="#9BE9A8" width="11" height="11"/>
		<rect x="-1.5" y="49.5" fill="#40C463" width="11" height="11"/>
		<rect x="-1.5" y="64.5" fill="#9BE9A8" width="11" height="11"/>
		<rect x="-1.5" y="79.5" fill="#40C463" width="11" height="11"/>
	</g>
	<g transform="translate(144, 0)">
		<rect x="-2.5" y="-10.5" fill="#40C463" width="11" height="11"/>
		<rect x="-2.5" y="4.5" fill="#9BE9A8" width="11" height="11"/>
		<rect x="-2.5" y="19.5" fill="#9BE9A8" width="11" height="11"/>
		<rect x="-2.5" y="34.5" fill="#40C463" width="11" height="11"/>
		<rect x="-2.5" y="49.5" fill="#40C463" width="11" height="11"/>
		<rect x="-2.5" y="64.5" fill="#40C463" width="11" height="11"/>
		<rect x="-2.5" y="79.5" fill="#EBEDF0" width="11" height="11"/>
	</g>
	<g transform="translate(160, 0)">
		<rect x="-3.5" y="-10.5" fill="#9BE9A8" width="11" height="11"/>
		<rect x="-3.5" y="4.5" fill="#30A14E" width="11" height="11"/>
		<rect x="-3.5" y="19.5" fill="#40C463" width="11" height="11"/>
		<rect x="-3.5" y="34.5" fill="#30A14E" width="11" height="11"/>
		<rect x="-3.5" y="49.5" fill="#9BE9A8" width="11" height="11"/>
		<rect x="-3.5" y="64.5" fill="#9BE9A8" width="11" height="11"/>
		<rect x="-3.5" y="79.5" fill="#EBEDF0" width="11" height="11"/>
	</g>
	<g transform="translate(176, 0)">
		<rect x="-4.5" y="-10.5" fill="#30A14E" width="11" height="11"/>
		<rect x="-4.5" y="4.5" fill="#30A14E" width="11" height="11"/>
		<rect x="-4.5" y="19.5" fill="#30A14E" width="11" height="11"/>
		<rect x="-4.5" y="34.5" fill="#40C463" width="11" height="11"/>
		<rect x="-4.5" y="49.5" fill="#30A14E" width="11" height="11"/>
		<rect x="-4.5" y="64.5" fill="#40C463" width="11" height="11"/>
		<rect x="-4.5" y="79.5" fill="#9BE9A8" width="11" height="11"/>
	</g>
	<g transform="translate(192, 0)">
		<rect x="-5.5" y="-10.5" fill="#40C463" width="11" height="11"/>
		<rect x="-5.5" y="4.5" fill="#EBEDF0" width="11" height="11"/>
		<rect x="-5.5" y="19.5" fill="#40C463" width="11" height="11"/>
		<rect x="-5.5" y="34.5" fill="#9BE9A8" width="11" height="11"/>
		<rect x="-5.5" y="49.5" fill="#EBEDF0" width="11" height="11"/>
		<rect x="-5.5" y="64.5" fill="#EBEDF0" width="11" height="11"/>
		<rect x="-5.5" y="79.5" fill="#40C463" width="11" height="11"/>
	</g>
	<g transform="translate(208, 0)">
		<rect x="-6.5" y="-10.5" fill="#40C463" width="11" height="11"/>
		<rect x="-6.5" y="4.5" fill="#9BE9A8" width="11" height="11"/>
		<rect x="-6.5" y="19.5" fill="#40C463" width="11" height="11"/>
		<rect x="-6.5" y="34.5" fill="#EBEDF0" width="11" height="11"/>
		<rect x="-6.5" y="49.5" fill="#9BE9A8" width="11" height="11"/>
		<rect x="-6.5" y="64.5" fill="#30A14E" width="11" height="11"/>
		<rect x="-6.5" y="79.5" fill="#40C463" width="11" height="11"/>
	</g>
	<g transform="translate(224, 0)">
		<rect x="-7.5" y="-10.5" fill="#EBEDF0" width="11" height="11"/>
		<rect x="-7.5" y="4.5" fill="#40C463" width="11" height="11"/>
		<rect x="-7.5" y="19.5" fill="#9BE9A8" width="11" height="11"/>
		<rect x="-7.5" y="34.5" fill="#40C463" width="11" height="11"/>
		<rect x="-7.5" y="49.5" fill="#9BE9A8" width="11" height="11"/>
		<rect x="-7.5" y="64.5" fill="#EBEDF0" width="11" height="11"/>
		<rect x="-7.5" y="79.5" fill="#30A14E" width="11" height="11"/>
	</g>
	<g transform="translate(240, 0)">
		<rect x="-8.5" y="-10.5" fill="#9BE9A8" width="11" height="11"/>
		<rect x="-8.5" y="4.5" fill="#EBEDF0" width="11" height="11"/>
		<rect x="-8.5" y="19.5" fill="#40C463" width="11" height="11"/>
		<rect x="-8.5" y="34.5" fill="#9BE9A8" width="11" height="11"/>
		<rect x="-8.5" y="49.5" fill="#9BE9A8" width="11" height="11"/>
		<rect x="-8.5" y="64.5" fill="#9BE9A8" width="11" height="11"/>
		<rect x="-8.5" y="79.5" fill="#40C463" width="11" height="11"/>
	</g>
	<g transform="translate(256, 0)">
		<rect x="-9.5" y="-10.5" fill="#40C463" width="11" height="11"/>
		<rect x="-9.5" y="4.5" fill="#40C463" width="11" height="11"/>
		<rect x="-9.5" y="19.5" fill="#40C463" width="11" height="11"/>
		<rect x="-9.5" y="34.5" fill="#40C463" width="11" height="11"/>
		<rect x="-9.5" y="49.5" fill="#9BE9A8" width="11" height="11"/>
		<rect x="-9.5" y="64.5" fill="#9BE9A8" width="11" height="11"/>
		<rect x="-9.5" y="79.5" fill="#40C463" width="11" height="11"/>
	</g>
	<g transform="translate(272, 0)">
		<rect x="-10.5" y="-10.5" fill="#9BE9A8" width="11" height="11"/>
		<rect x="-10.5" y="4.5" fill="#9BE9A8" width="11" height="11"/>
		<rect x="-10.5" y="19.5" fill="#EBEDF0" width="11" height="11"/>
		<rect x="-10.5" y="34.5" fill="#30A14E" width="11" height="11"/>
		<rect x="-10.5" y="49.5" fill="#40C463" width="11" height="11"/>
		<rect x="-10.5" y="64.5" fill="#9BE9A8" width="11" height="11"/>
		<rect x="-10.5" y="79.5" fill="#9BE9A8" width="11" height="11"/>
	</g>
	<g transform="translate(288, 0)">
		<rect x="-11.5" y="-10.5" fill="#9BE9A8" width="11" height="11"/>
		<rect x="-11.5" y="4.5" fill="#EBEDF0" width="11" height="11"/>
		<rect x="-11.5" y="19.5" fill="#40C463" width="11" height="11"/>
		<rect x="-11.5" y="34.5" fill="#9BE9A8" width="11" height="11"/>
		<rect x="-11.5" y="49.5" fill="#9BE9A8" width="11" height="11"/>
		<rect x="-11.5" y="64.5" fill="#9BE9A8" width="11" height="11"/>
		<rect x="-11.5" y="79.5" fill="#30A14E" width="11" height="11"/>
	</g>
	<g transform="translate(304, 0)">
		<rect x="-12.5" y="-10.5" fill="#40C463" width="11" height="11"/>
		<rect x="-12.5" y="4.5" fill="#9BE9A8" width="11" height="11"/>
		<rect x="-12.5" y="19.5" fill="#30A14E" width="11" height="11"/>
		<rect x="-12.5" y="34.5" fill="#40C463" width="11" height="11"/>
		<rect x="-12.5" y="49.5" fill="#40C463" width="11" height="11"/>
		<rect x="-12.5" y="64.5" fill="#40C463" width="11" height="11"/>
		<rect x="-12.5" y="79.5" fill="#9BE9A8" width="11" height="11"/>
	</g>
	<g transform="translate(320, 0)">
		<rect x="-13.5" y="-10.5" fill="#30A14E" width="11" height="11"/>
		<rect x="-13.5" y="4.5" fill="#EBEDF0" width="11" height="11"/>
		<rect x="-13.5" y="19.5" fill="#30A14E" width="11" height="11"/>
		<rect x="-13.5" y="34.5" fill="#30A14E" width="11" height="11"/>
		<rect x="-13.5" y="49.5" fill="#EBEDF0" width="11" height="11"/>
		<rect x="-13.5" y="64.5" fill="#40C463" width="11" height="11"/>
		<rect x="-13.5" y="79.5" fill="#EBEDF0" width="11" height="11"/>
	</g>
	<g transform="translate(336, 0)">
		<rect x="-14.5" y="-10.5" fill="#9BE9A8" width="11" height="11"/>
		<rect x="-14.5" y="4.5" fill="#30A14E" width="11" height="11"/>
		<rect x="-14.5" y="19.5" fill="#EBEDF0" width="11" height="11"/>
		<rect x="-14.5" y="34.5" fill="#30A14E" width="11" height="11"/>
		<rect x="-14.5" y="49.5" fill="#EBEDF0" width="11" height="11"/>
		<rect x="-14.5" y="64.5" fill="#40C463" width="11" height="11"/>
		<rect x="-14.5" y="79.5" fill="#9BE9A8" width="11" height="11"/>
	</g>
	<g transform="translate(352, 0)">
		<rect x="-15.5" y="-10.5" fill="#40C463" width="11" height="11"/>
		<rect x="-15.5" y="4.5" fill="#9BE9A8" width="11" height="11"/>
		<rect x="-15.5" y="19.5" fill="#9BE9A8" width="11" height="11"/>
		<rect x="-15.5" y="34.5" fill="#40C463" width="11" height="11"/>
		<rect x="-15.5" y="49.5" fill="#9BE9A8" width="11" height="11"/>
		<rect x="-15.5" y="64.5" fill="#40C463" width="11" height="11"/>
		<rect x="-15.5" y="79.5" fill="#40C463" width="11" height="11"/>
	</g>
	<g transform="translate(368, 0)">
		<rect x="-16.5" y="-10.5" fill="#40C463" width="11" height="11"/>
		<rect x="-16.5" y="4.5" fill="#30A14E" width="11" height="11"/>
		<rect x="-16.5" y="19.5" fill="#9BE9A8" width="11" height="11"/>
		<rect x="-16.5" y="34.5" fill="#EBEDF0" width="11" height="11"/>
		<rect x="-16.5" y="49.5" fill="#40C463" width="11" height="11"/>
		<rect x="-16.5" y="64.5" fill="#EBEDF0" width="11" height="11"/>
		<rect x="-16.5" y="79.5" fill="#30A14E" width="11" height="11"/>
	</g>
	<g transform="translate(384, 0)">
		<rect x="-17.5" y="-10.5" fill="#40C463" width="11" height="11"/>
		<rect x="-17.5" y="4.5" fill="#EBEDF0" width="11" height="11"/>
		<rect x="-17.5" y="19.5" fill="#EBEDF0" width="11" height="11"/>
		<rect x="-17.5" y="34.5" fill="#40C463" width="11" height="11"/>
		<rect x="-17.5" y="49.5" fill="#30A14E" width="11" height="11"/>
		<rect x="-17.5" y="64.5" fill="#40C463" width="11" height="11"/>
		<rect x="-17.5" y="79.5" fill="#9BE9A8" width="11" height="11"/>
	</g>
	<g transform="translate(400, 0)">
		<rect x="-18.5" y="-10.5" fill="#40C463" width="11" height="11"/>
		<rect x="-18.5" y="4.5" fill="#40C463" width="11" height="11"/>
		<rect x="-18.5" y="19.5" fill="#9BE9A8" width="11" height="11"/>
		<rect x="-18.5" y="34.5" fill="#9BE9A8" width="11" height="11"/>
		<rect x="-18.5" y="49.5" fill="#9BE9A8" width="11" height="11"/>
		<rect x="-18.5" y="64.5" fill="#EBEDF0" width="11" height="11"/>
		<rect x="-18.5" y="79.5" fill="#40C463" width="11" height="11"/>
	</g>
	<g transform="translate(416, 0)">
		<rect x="-19.5" y="-10.5" fill="#EBEDF0" width="11" height="11"/>
		<rect x="-19.5" y="4.5" fill="#40C463" width="11" height="11"/>
		<rect x="-19.5" y="19.5" fill="#30A14E" width="11" height="11"/>
		<rect x="-19.5" y="34.5" fill="#9BE9A8" width="11" height="11"/>
		<rect x="-19.5" y="49.5" fill="#EBEDF0" width="11" height="11"/>
		<rect x="-19.5" y="64.5" fill="#40C463" width="11" height="11"/>
		<rect x="-19.5" y="79.5" fill="#30A14E" width="11" height="11"/>
	</g>
	<g transform="translate(432, 0)">
		<rect x="-20.5" y="-10.5" fill="#40C463" width="11" height="11"/>
		<rect x="-20.5" y="4.5" fill="#30A14E" width="11" height="11"/>
		<rect x="-20.5" y="19.5" fill="#9BE9A8" width="11" height="11"/>
	</g>
</g>
</svg>
