<svg xmlns="http://www.w3.org/2000/svg" viewBox="0 0 48 48" width="48px" height="48px">
<circle fill="#0085FF" cx="24" cy="24" r="18"/>
<path fill-rule="evenodd" fill="#FDFEFF" d="M19.2,27.9c0.2-0.1,0.4-0.3,0.5-0.4c0.2-0.1,0.3-0.3,0.5-0.4c0.1,0,0.1,0,0.1,0
	c0.2,0.2,0.3,0.3,0.5,0.5c0.8,0.9,1.7,1.9,2.5,2.8c0.2,0.2,0.3,0.5,0.3,0.8c0.1,0.4,0.1,0.7,0.1,1.1c0,0.5-0.1,0.9-0.2,1.4
	c0,0,0,0.1-0.1,0.1c-0.1,0-0.1-0.1-0.1-0.1c-0.6-0.7-1.2-1.4-1.8-2.2c-0.8-0.9-1.6-1.9-2.4-2.8c0,0-0.1-0.1-0.1-0.1c0,0-0.1,0-0.1,0
	c0,0.1-0.1,0.2-0.1,0.3c-0.4,1.3-0.9,2.5-1.6,3.7c-0.3,0.4-0.6,0.9-0.9,1.3c-0.4,0.5-0.9,0.8-1.5,1.1c-0.9,0.4-1.9,0.5-2.9,0.2
	c0,0-0.1,0-0.1,0c0,0,0,0,0,0c0,0,0,0,0,0c0.1-0.1,0.3-0.2,0.4-0.3c1.1-0.9,2-1.8,2.8-3c1.2-1.6,2-3.4,2.3-5.4
	c0.1-0.5,0.2-0.9,0.2-1.4c0,0,0-0.1,0-0.1c0-0.1,0-0.1-0.1-0.2c-0.2,0-0.4,0-0.6,0c-1.5,0-3,0-4.4,0c-0.2,0-0.2,0-0.2-0.2
	c0.1-0.3,0.2-0.6,0.3-0.8c0.1-0.2,0.2-0.3,0.3-0.5c0.1-0.1,0.2-0.2,0.3-0.3c0.1-0.1,0.2-0.1,0.4-0.1c0.1,0,0.1,0,0.2,0
	c1.3,0,2.6,0,3.9,0c0.3,0,0.2,0,0.3-0.2c0-0.1,0-0.3,0-0.4c0-1.4,0.1-2.7,0.1-4.1c0-0.4,0-0.7,0-1.1c0,0,0-0.1,0-0.1
	c0-0.1,0-0.1-0.1-0.1c0,0-0.1,0-0.1,0c-0.7,0-1.3,0-2,0c-0.1,0-0.1,0-0.2,0c0,0,0,0.1,0,0.1c-0.1,0.3-0.2,0.6-0.3,0.9
	c0,0.1-0.1,0.2-0.1,0.3c-0.5,0.9-1.4,1.5-2.4,1.6c-0.2,0-0.3,0-0.5,0.1c0,0-0.1,0,0-0.1c0,0,0-0.1,0-0.1c0.6-1.3,1.2-2.6,1.6-3.9
	c0.2-0.7,0.5-1.3,0.7-2c0-0.1,0.1-0.2,0.1-0.4c0.2-0.6,0.7-1.1,1.3-1.4c0.4-0.2,0.8-0.3,1.2-0.4c0,0,0.1,0,0.1,0c0,0,0.1,0,0.1,0.1
	c0,0.1,0,0.1-0.1,0.2c-0.3,0.9-0.7,1.9-0.9,2.9c0,0.1,0,0.1,0,0.2c0,0.1,0,0.1,0.1,0.1c0.1,0,0.1,0,0.2,0c2.3,0,4.5,0,6.8,0
	c0.1,0,0.2,0,0.2,0c0.2,0,0.3,0.1,0.5,0.3c0.1,0.1,0.1,0.2,0.1,0.3c0.1,0.4,0.1,0.8,0.1,1.2c0,0.1,0,0.1-0.1,0.1c-0.1,0-0.1,0-0.2,0
	c-1.2,0-2.5,0-3.7,0c-0.3,0-0.2,0-0.2,0.2c0,1,0,2.1,0,3.1c0,0.7-0.1,1.4-0.1,2.2c0,0.2,0,0.3,0,0.5c0,0.1,0,0.1,0.1,0.1
	c0.1,0,0.1,0,0.2,0c1.3,0,2.6,0,3.8,0c0.1,0,0.1,0,0.2,0c0.2,0,0.3,0.1,0.3,0.2c0.1,0.1,0.1,0.2,0.2,0.3c0.1,0.3,0.1,0.5,0.1,0.8
	c0,0.2,0,0.3,0,0.5c0,0.1,0,0.1-0.1,0.1c-0.1,0-0.1,0-0.2,0c-1.5,0-3.1,0-4.6,0c-0.3,0-0.2,0-0.3,0.2c-0.1,0.8-0.2,1.7-0.4,2.5
	C19.3,27.5,19.2,27.7,19.2,27.9C19.2,27.9,19.1,27.9,19.2,27.9C19.2,28,19.2,28,19.2,27.9z"/>
<path fill-rule="evenodd" fill="#FDFEFF" d="M36.1,23.5c0,2.9,0,5.8,0,8.7c0,0.3,0,0.3-0.3,0.3c-1.2,0-2.4,0-3.6,0
	c-0.1,0-0.3,0-0.4,0.1c-1,0.7-2.1,1.3-3.1,1.9c-0.2,0.1-0.2,0.1-0.3-0.1c-0.2-0.6-0.3-1.2-0.5-1.7c0,0,0-0.1,0-0.1
	c0-0.1,0-0.1-0.1-0.1c-0.1,0-0.2,0-0.3,0c-0.4,0-0.9,0-1.3,0c-0.2,0-0.2,0-0.2-0.2c0,0,0-0.1,0-0.1c0-5.8,0-11.6,0-17.4
	c0-0.3,0-0.3,0.3-0.3c3.2,0,6.4,0,9.6,0c0.1,0,0.1,0,0.2,0c0,0,0.1,0,0.1,0.1c0,0.1,0,0.1,0,0.2C36.1,17.7,36.1,20.6,36.1,23.5z
	 M28,23.5c0,0.2,0,0.4,0,0.6c0,2.1,0,4.2,0,6.2c0,0.1,0,0.1,0,0.2c0,0,0,0,0,0c0,0,0.1,0,0.1,0c0.2,0,0.4,0,0.6,0
	c0.2,0,0.2,0,0.3,0.2c0,0,0,0,0,0c0.1,0.4,0.2,0.7,0.3,1.1c0,0.1,0,0.1,0.2,0.1c0,0,0.1-0.1,0.1-0.1c0.6-0.4,1.3-0.8,1.9-1.2
	c0.1-0.1,0.2-0.1,0.3-0.1c0.6,0,1.3,0,1.9,0c0.3,0,0.3,0,0.3-0.2c0-4.5,0-9.1,0-13.6c0-0.3,0-0.2-0.2-0.2c-1.8,0-3.7,0-5.5,0
	c-0.3,0-0.3,0-0.3,0.3C28,19,28,21.2,28,23.5z"/>
<path fill-rule="evenodd" fill="#1087EB" d="M19.2,27.9C19.2,28,19.2,28,19.2,27.9C19.1,27.9,19.2,27.9,19.2,27.9
	C19.2,27.9,19.2,27.9,19.2,27.9z"/>
</svg>
